<svg xmlns="http://www.w3.org/2000/svg" viewBox="0 0 64 64" role="img" aria-labelledby="title desc">
  <title id="title">Tilapia Premium</title>
  <desc id="desc">Favicon com peixe branco sobre fundo verde.</desc>
  <defs>
    <linearGradient id="bg" x1="10" x2="54" y1="8" y2="58" gradientUnits="userSpaceOnUse">
      <stop stop-color="#1fa34a" />
      <stop offset="1" stop-color="#0f5b2f" />
    </linearGradient>
  </defs>
  <rect width="64" height="64" rx="14" fill="url(#bg)" />
  <path
    fill="#fff"
    d="M9.7 32.2c5.8-8 13.6-12 23.1-12 8 0 14.5 3.1 19.4 9.2l5.1-5.2c1.2-1.2 3.2-.4 3.2 1.3v17.1c0 1.7-2.1 2.5-3.2 1.3l-5.2-5.2C47.2 44.8 40.7 48 32.8 48c-9.4 0-17.1-3.9-23.1-11.8-1-1.4-1-2.8 0-4Z"
  />
  <path
    fill="#0f5b2f"
    fill-opacity=".18"
    d="M18.6 34.1c4.1 3.9 9.1 5.8 14.8 5.8 6 0 11-2 15-6-4.3 7.2-10.6 10.8-18.8 10.8-6.7 0-12.6-3-17.5-9l6.5-1.6Z"
  />
  <circle cx="41.5" cy="29.5" r="3" fill="#12351f" />
  <path
    fill="none"
    stroke="#b7f2c6"
    stroke-linecap="round"
    stroke-width="3.2"
    d="M17.5 25.5c-3.2-3.7-2.8-7.2 1.2-10.6M24.7 22c-2.2-3.6-1.2-6.6 2.8-9.1"
  />
</svg>
